<svg id="Layer_5" enable-background="new 0 0 64 64" height="512" viewBox="0 0 64 64" width="512" xmlns="http://www.w3.org/2000/svg"><path d="m55.754 11.674c1.367-1.101 2.246-2.786 2.246-4.674 0-3.309-2.691-6-6-6s-6 2.691-6 6c0 1.888.879 3.573 2.246 4.674-1.388.506-2.645 1.282-3.709 2.268-3.691-2.571-8.002-3.942-12.537-3.942-12.131 0-22 9.869-22 22 0 3.112.671 6.185 1.935 9.003-3.279.036-5.935 2.711-5.935 5.997 0 1.888.879 3.573 2.246 4.674-4.219 1.539-7.246 5.58-7.246 10.326v1h22v-1c0-4.746-3.027-8.787-7.246-10.326.929-.747 1.631-1.764 1.986-2.931 3.975 3.398 8.964 5.257 14.26 5.257 12.131 0 22-9.869 22-22 0-3.107-.667-6.185-1.928-9h10.928v-1c0-4.746-3.027-8.787-7.246-10.326zm-7.754-4.674c0-2.206 1.794-4 4-4s4 1.794 4 4-1.794 4-4 4-4-1.794-4-4zm-22 44.086c-.681-.213-1.347-.469-2-.754v-28.332h16v28.318c-.651.285-1.316.543-2 .759v-9.077h-12zm15.191-31.086h-19.191v-1c0-.551.449-1 1-1h18c.254 0 .486.101.667.265-.203.56-.366 1.138-.476 1.735zm-19.191 16h-2v-4h2zm-2 2h2v4h-2zm22 0h2v4h-2zm2-2h-2v-4h2zm-12-24c4.039 0 7.882 1.195 11.191 3.44-.236.315-.455.643-.656.983-.454-.271-.98-.423-1.535-.423h-18c-1.654 0-3 1.346-3 3v3h2v4h-5c-1.654 0-3 1.346-3 3v11.723c-1.31-2.705-2-5.695-2-8.723 0-11.028 8.972-20 20-20zm-11.055 49h-2.945v-4h-2v4h-8v-4h-2v4h-2.945c.499-4.494 4.32-8 8.945-8s8.446 3.506 8.945 8zm-8.945-10c-2.206 0-4-1.794-4-4s1.794-4 4-4 4 1.794 4 4-1.794 4-4 4zm4-8.46v-13.54c0-.551.449-1 1-1h5v2h-4v14h4v5.31c-1.462-.848-2.826-1.883-4.059-3.103-.193-1.45-.903-2.735-1.941-3.667zm12 9.063v-7.603h8v7.597c-1.293.263-2.63.403-4 .403-1.36 0-2.698-.135-4-.397zm14-2.309v-5.294h4v-14h-4v-2h5c.551 0 1 .449 1 1v14.949c-1.618 2.161-3.655 3.983-6 5.345zm10-17.294c0 3.105-.732 6.035-2 8.66v-11.66c0-1.654-1.346-3-3-3h-5v-3h7.854c1.4 2.774 2.146 5.87 2.146 9zm6-11v-4h-2v4h-8v-4h-2v4h-2.945c.499-4.494 4.32-8 8.945-8s8.446 3.506 8.945 8z"/><path d="m28 30h8c1.103 0 2-.897 2-2v-2c0-1.103-.897-2-2-2h-8c-1.103 0-2 .897-2 2v2c0 1.103.897 2 2 2zm0-4h8l.001 2h-8.001z"/><path d="m38 34c0-1.103-.897-2-2-2h-8c-1.103 0-2 .897-2 2v2c0 1.103.897 2 2 2h8c1.103 0 2-.897 2-2zm-10 2v-2h8l.001 2z"/><path d="m47 53h5v4h-13v2h13c1.103 0 2-.897 2-2v-6h-3l4-5.333 4 5.333h-3v7c0 1.654-1.346 3-3 3h-14v2h14c2.757 0 5-2.243 5-5v-5h5l-8-10.667z"/><path d="m35 61h2v2h-2z"/><path d="m31 61h2v2h-2z"/><path d="m17 11h-5v-4h13v-2h-13c-1.103 0-2 .897-2 2v6h3l-4 5.333-4-5.333h3v-7c0-1.654 1.346-3 3-3h14v-2h-14c-2.757 0-5 2.243-5 5v5h-5l8 10.667z"/><path d="m27 1h2v2h-2z"/><path d="m31 1h2v2h-2z"/></svg>